<svg version="1.1" xmlns="http://www.w3.org/2000/svg" xmlns:xlink="http://www.w3.org/1999/xlink" x="0px"
 y="0px" viewBox="0 0 892 135" style="enable-background:new 0 0 892 135;" xml:space="preserve" fill="#ffffff">
<path d="M90.4,109.7c-3.6,2.4-18.3,8.7-22.8,10.2c-3,0.9-5.7,2.7-8.4,4.2c-3.6,1.2-7.3,1.9-11.1,2.1c-6.9,0-6.6-7.2-11.4-7.2
c-4.2,0-7.8,5.7-15.6,5.7c-3.5-0.1-6.9-0.7-10.2-1.8c-5.7-1.5-8.4-2.7-8.4-9.3c0-8.7,12-17.1,18.9-21c5.7-3,11.7-8.4,19.2-8.4h1.2
c3,0,5.7-1.2,8.4-1.2c4.8,0,6.3,6,6.3,9.9c0,6-5.4,11.7-5.4,15.9c0,2.7,1.8,6.6,4.8,6.6c2.4,0,18.3-4.5,21-6s10.2-5.1,13.2-5.1
c1.2,0,3,0.6,3,1.8C93.1,107.6,91.3,109.1,90.4,109.7z M43,92.6c-6.6,0-17.4,11.1-23.4,14.4c-1.8,1.2-3.6,2.7-3.6,5.1
c0,2.7,2.7,4.2,5.1,4.2c5.4,0,14.4-7.5,17.1-12C40,101,46,99.2,46,96.2C46,94.4,44.8,92.6,43,92.6L43,92.6z"/>
<path d="M209.2,111.2c-4.2,1.5-8.2,3.4-12,5.7c-3.6,2.1-4.8,3.9-9.6,4.2c-3.6,0.3-6,3.6-9.6,4.8c-2.9,1-5.9,1.6-9,1.8
c-6.9,0-12.3-5.4-15.6-10.8c-1.8-2.7-0.6-12-3.3-12s-10.8,6.3-14.4,7.8c-10.2,4.2-11.7,13.2-26.7,13.2c-3.3,0-7.2-1.8-7.2-5.4
c0-3.9,6.3-6.6,6.3-10.2c0-1.2-3.9-5.7-5.4-5.7c-0.7,0.2-1.5,0.5-2.1,0.9c-6,2.7-12.3,2.7-17.7,6c-2.1,1.2-4.5,2.4-6.9,2.4
c-0.9,0-4.2-0.3-4.2-1.5c0-2.1,6.6-5.4,8.1-6c4.5-2.4,9.3-4.2,14.1-6.6c5.7-3,10.8-6.9,16.5-10.2c1.5-0.9,3.3-1.5,5.1-1.5
c3.6,0,11.1,5.7,11.1,9.3c0,3-4.5,6.3-4.5,10.8c0,1.2,0.3,1.8,1.5,1.8c2.4,0,20.1-12.3,22.5-15c3.6-4.5,12-13.2,18.3-13.2
c3.6,0,7.5,6,7.5,9.3c0,6-9.9,4.2-9.9,12.9c0,1.4,0.2,2.8,0.6,4.2c2.1,7.8,3.9,10.2,12,10.2c5.7,0,10.2-3.6,15.3-5.4
c5.4-1.8,17.4-8.7,21-8.7c1.2,0,3.3,0.6,3.3,2.4C214.3,108.8,211,110.3,209.2,111.2z"/>
<path d="M264.4,113.3c-3.6,1.8-6.9,3-10.2,5.7c-3.6,3.3-9.6,3.9-14.4,5.1c-3.6,0.9-7.8,3.3-11.7,3.3c-4.5,0-14.1-3.6-15.6-8.1
c-0.6-2.7-0.6-6-2.1-8.1c-0.9-1.5-2.7-3-2.7-4.8c0-2.1,6-7.8,7.8-9c3.3-2.1,5.4-5.4,7.8-8.4c1.8-2.4,5.4-3,8.4-3
c2.7,0,5.1,0.3,5.1,3.9c0.1,1.1-0.3,2.1-1.2,2.7c-2.7,1.8-3.3,6.9-6.6,8.4c-3,1.2-6.3,5.7-6.3,9.3c0.1,3.7,3.2,6.8,6.9,6.9
c2.1,0,3.9-0.9,6-0.9c0.9,0,2.1,0.3,3.3,0.3c1.5,0.2,2.9-0.4,3.9-1.5c3.3-2.7,10.8-1.5,15.6-5.1c3.6-2.7,5.7-2.1,7.8-3.6
c1.5-1,3.3-1.7,5.1-1.8c1.2,0,3,0.3,3,1.8C274.3,110,267.1,112.1,264.4,113.3z M296.8,32.6c-7.5,0-12-6.6-12-13.8c0-3.3,6-12,8.4-12
c1.5,0,3.3,2.1,4.5,3.3c2.7,3,2.1,7.8,2.7,11.4c0.3,2.4,2.4,4.2,2.4,6.3C302.8,30.2,299.2,32.6,296.8,32.6L296.8,32.6z"/>
<path d="M448.9,113.6c-9.6,3.9-20.1,12-30.9,12c-1.2,0-2.4-0.3-3.6-0.3c-1.8,0-3.3,0.6-5.1,0.6c-7.2,0-12.3-6.3-12.3-13.5
c0-4.2,2.4-7.2,2.4-8.7s-2.1-1.8-3.3-1.8c-3.9,0-4.8,3.3-11.1,3.3c-3.6,0-7.2,3.3-10.5,4.8c-4.5,2-8.8,4.3-12.9,6.9
c-3.9,2.4-4.8,9.3-9,9.9c-0.8,0.3-1.6,0.4-2.4,0.3c0,0-8.1-3.6-8.1-6.9c0-5.4,7.8-6.9,7.8-13.2c0-3.3-2.4-4.8-5.7-4.8
c-2.7,0-5.1,1.2-7.5,2.7c-4.2,3.3-6.9,3.9-12,4.8c-4.8,1.2-10.8,4.5-15,7.5c-2.7,2.1-6.9,8.4-10.5,8.4c-2.1,0-8.4-3.6-8.4-5.7
c0.1-1.8,1.1-3.4,2.7-4.2c3-1.8,6-11.7,6-14.7c0-2.4-1.5-3-3.6-3c-9,0-9.9,6.6-15.9,7.8c-5.4,1.2-10.5,6.9-15.3,6.9
c-1.5,0-3-0.6-3-2.1c0-1.8,1.2-3,2.7-3.9c3.3-1.5,6.3-3.9,9.3-6c6.9-4.8,18.6-15.6,27.3-15.6c3,0,1.5,1.5,4.5,2.1c3,0.9,9,1.8,9,6
c0,2.7-1.8,5.4-1.8,8.4c0,1.5,0.9,2.4,2.7,2.4s3.6-0.9,5.7-0.9c1.5-1.2,3.6-1.8,5.4-2.7c5.7-3,10.5-9.3,17.4-9.6
c6.6,0,9.9-4.5,14.4-4.5c3.6,0,12.6,3.9,12.6,8.1c0,2.1-2.7,5.1-2.7,7.8c0,0.9,0.3,1.2,1.2,1.2c5.4,0,18-9.9,25.5-11.1
c4.8-0.6,7.5-6.9,13.5-6.9c4.8,0,10.2,4.2,10.2,9.3c0,4.8-9.3,9-9.3,20.4c0,3,3.9,3.3,7.8,3.3s8.4-0.6,11.7-3
c4.2-2.4,9-2.7,12.9-5.1c2.7-1.5,5.1-2.4,7.8-3.6c1.8-0.9,4.5-2.7,6.6-2.7c1.2,0,2.7,0.9,2.7,2.1C458.8,109.4,451,112.7,448.9,113.6
z"/>
<path d="M537.7,109.7c-3.6,2.4-18.3,8.7-22.8,10.2c-3,0.9-5.7,2.7-8.4,4.2c-3.6,1.2-7.3,1.9-11.1,2.1c-6.9,0-6.6-7.2-11.4-7.2
c-4.2,0-7.8,5.7-15.6,5.7c-3.5-0.1-6.9-0.7-10.2-1.8c-5.7-1.5-8.4-2.7-8.4-9.3c0-8.7,12-17.1,18.9-21c5.7-3,11.7-8.4,19.2-8.4h1.2
c3,0,5.7-1.2,8.4-1.2c4.8,0,6.3,6,6.3,9.9c0,6-5.4,11.7-5.4,15.9c0,2.7,1.8,6.6,4.8,6.6c2.4,0,18.3-4.5,21-6s10.2-5.1,13.2-5.1
c1.2,0,3,0.6,3,1.8C540.4,107.6,538.6,109.1,537.7,109.7z M490.3,92.6c-6.6,0-17.4,11.1-23.4,14.4c-1.8,1.2-3.6,2.7-3.6,5.1
c0,2.7,2.7,4.2,5.1,4.2c5.4,0,14.4-7.5,17.1-12c1.8-3.3,7.8-5.1,7.8-8.1C493.3,94.4,492.1,92.6,490.3,92.6z"/>
<path d="M748,52.7c-3,0-6.3-1.5-9.6-1.5c-3,0-5.7,0.6-9.3,0.6h-2.4c-3.9,0-7.8,0.3-11.7,0.3c-3.3,0-6.6-0.6-9.9-0.6
c-5.4,0-10.8,0.9-16.2,0.9c-3.3,0-6.3-1.2-9.3-1.2c-2.7,0-4.8,0.9-7.5,0.9c-4.2,0-8.4-0.9-12.6-0.9c-8.7,0-17.4,1.2-26.1,1.2H625
c-3.6,0-9.6,2.1-11.7,5.4c-2.4,3.6-7.5,4.8-9.3,9.3c-1.8,4.8-9.6,6.9-12.3,12.9c-2.7,6.3-9.3,7.8-11.1,12.3
c-1.5,4.2-5.4,5.7-6.3,8.4c-1.1,3.1-1.6,6.3-1.5,9.6c0,6,4.8,7.5,9.9,7.5c1.6,0,3.3-0.3,4.8-0.9c4.5-1.5,9.3-1.5,13.5-3.6
c3.3-1.8,6.9-2.4,10.2-4.2s8.1-4.8,11.7-4.8c1.2,0,3.3,0.9,3.3,2.4c0,1.8-8.7,6-10.8,6.6c-3.9,0.9-5.7,4.5-9.9,5.1
s-8.1,3.6-12.6,4.2c-5.1,0.9-9.9,2.7-15,2.7c-6,0-17.1-3.3-17.1-10.8v-9c0-1.5,0-3,0.9-4.2c3.3-5.1,4.5-11.4,9.6-14.7
c4.8-3,4.5-3.9,7.2-7.8c1.8-2.4,7.5-5.7,9.6-8.7c0.4-0.6,0.6-1.4,0.6-2.1c0-0.3-0.3-0.6-0.9-0.6l-0.9,0.9c-1.3,1.8-3,3.3-5.1,4.2
c-8.1,4.5-6.3,8.1-9.9,10.2c-4.2,2.4-6.6,5.7-9.9,9c-3.2,3.1-6.8,5.8-10.8,7.8c-3,1.8-4.5,5.1-7.8,6.3c-3.6,1.5-7.2,3.3-10.5,5.4
c-1.8,1.2-3.9,2.4-6,2.4c-1.2,0-3-0.9-3-2.4c0-2.4,12-8.4,14.4-10.2c4.2-2.7,7.8-6.3,12-9s7.8-6.9,12.3-9.6
c6.3-3.9,9.3-10.2,14.4-15c1.5-1.5,12.6-13.2,12.6-13.8c0-0.3-0.3-0.6-0.6-0.9c-3.6-0.9-8.4-0.6-12.3-0.9c-2.6-0.5-5.2-0.7-7.8-0.6
h-6.6c-2.4,0-4.8,0.9-7.2,0.9c-1.2,0-2.1-0.3-3.3-0.3c-0.9,0-2.7,0.9-3.9,0.9c-2.4,0-2.1-0.6-4.5-0.6c-4.2,0-8.1,0.3-12,0.3
c-1.8,0-4.5-0.3-4.5-2.7c0-2.7,0.6-4.8,3.9-4.8c1.8,0,3.6,0.6,5.4,0.6c5.1,0,9.9-0.3,15-0.3c6.3,0,12.9,0.3,19.5,0.3
c3.6,0,7.2-1.5,11.1-1.5c3.3,0,6.9,0.6,10.2,0.6c13.2,0,9-6,16.8-9c6.3-2.1,6.3-5.7,10.5-7.2s5.7-6.6,10.2-8.7c3.6-1.5,9-6,12.6-6
c2.3,0.2,4,1.9,4.2,4.2c0,2.4-6.3,12.3-8.4,13.5c-3.6,2.4-7.2,10.5-9.9,11.1c-0.3,0.3-1.2,0.3-1.2,0.9c0,1.8,3.9,2.4,7.5,2.4
c2.7,0,5.4-0.3,6.3-0.3c4.5,0,9.3,0.6,13.8,0.6c3.6,0,6.9-1.2,10.5-1.2c4.2,0,8.7,0.9,12.9,0.9c3,0,5.7-0.6,8.4-0.6
c3.9,0,7.5,1.2,11.4,1.2c3.6,0,6.9-0.9,10.2-0.9c2.1,0,3.9,0.3,5.7,0.3c3,0,5.4-1.2,8.1-1.2c4.8,0,9.6,0.9,14.4,0.9
c3.6,0,6.9-1.8,10.8-1.8c2.1,0,4.2,0.6,4.2,3.9C751,50,751,52.7,748,52.7z"/>
<path d="M676,113.3c-3.6,1.8-6.9,3-10.2,5.7c-3.6,3.3-9.6,3.9-14.4,5.1c-3.6,0.9-7.8,3.3-11.7,3.3c-4.5,0-14.1-3.6-15.6-8.1
c-0.6-2.7-0.6-6-2.1-8.1c-0.9-1.5-2.7-3-2.7-4.8c0-2.1,6-7.8,7.8-9c3.3-2.1,5.4-5.4,7.8-8.4c1.8-2.4,5.4-3,8.4-3
c2.7,0,5.1,0.3,5.1,3.9c0.1,1.1-0.3,2.1-1.2,2.7c-2.7,1.8-3.3,6.9-6.6,8.4c-3,1.2-6.3,5.7-6.3,9.3c0.1,3.7,3.2,6.8,6.9,6.9
c2.1,0,3.9-0.9,6-0.9c0.9,0,2.1,0.3,3.3,0.3c1.5,0.2,2.9-0.4,3.9-1.5c3.3-2.7,10.8-1.5,15.6-5.1c3.6-2.7,5.7-2.1,7.8-3.6
c1.5-1,3.3-1.7,5.1-1.8c1.2,0,3,0.3,3,1.8C685.9,110,678.7,112.1,676,113.3z M708.4,32.6c-7.5,0-12-6.6-12-13.8c0-3.3,6-12,8.4-12
c1.5,0,3.3,2.1,4.5,3.3c2.7,3,2.1,7.8,2.7,11.4c0.3,2.4,2.4,4.2,2.4,6.3C714.4,30.2,710.8,32.6,708.4,32.6L708.4,32.6z"/>
<path d="M871.6,116.9c-4.2,0.9-7.8,3.9-12,4.5c-4.8,0.6-9.3,3.9-14.4,4.8c-3.8,0.6-7.6,0.9-11.4,0.9c-0.9,0-2.7-0.6-3.6-0.6
c-12-1.2-12.6-10.5-20.4-10.5c-4.2,0-9.6,11.4-17.7,11.4c-5.7,0-15-2.1-15-9.6c0-4.2,3.3-8.1,3.3-12.3c0-3.3-2.4-3.9-5.1-3.9
c-1.8-0.1-3.6,0.3-5.1,1.2c-2.8,2-6,3.3-9.3,3.9c-8.5,2-17.1,3.1-25.8,3.3c-1.8,0-3.6-0.6-5.4-0.6c-3.6,0-6,1.2-9.3,1.5
c-3,0.6-5.4,3-7.5,4.8c-2.1,1.2-3.9,3.3-6,4.5c-4.2,2.1-10.5,5.7-15.3,5.7c-6.6,0-12.9-6.6-12.9-13.2c0-11.1,25.2-27.9,34.8-30
c2.2-0.7,4.6-1.1,6.9-1.2c1.8-0.2,3.6,0.5,4.8,1.8c2.1,1.8,6,3.9,6.6,6.9s-0.3,3.3,1.5,5.7c2.1,2.7,5.3,4.2,8.7,4.2
c4.8,0,18.9-2.1,22.8-4.2c4.5-2.7,14.1-6.3,19.2-6.3c3.9,0,6.9,4.5,7.5,8.7c0.3,1.8,2.1,5.1,2.1,7.2c0,1.5-1.2,2.7-1.2,3.9
c0.2,1.2,1.2,2.2,2.4,2.4c12,0,12-13.5,21.9-13.5c3.3,0,7.5,2.4,7.5,6v3c0,8.4,9,9.9,15.9,9.9c8.1,0,15.9-2.1,23.7-4.5
c4.8-1.5,16.2-8.1,20.1-8.1c1.2,0,2.7,0.6,2.7,1.8C886.6,108.5,874,116.6,871.6,116.9z M715.3,89.9c-0.6,0-0.6,0.3-1.8,1.5
c-0.6,3.3-9.6,5.4-12,7.8c-3.9,2.4-9.3,10.5-9.3,14.1c0,1.8,0.6,1.8,2.4,1.8c7.2,0,24.9-12.9,24.9-20.4
C719.5,92.6,717.4,89.9,715.3,89.9z"/>
</svg>
