<svg version="1.1" xmlns="http://www.w3.org/2000/svg" xmlns:xlink="http://www.w3.org/1999/xlink" x="0px"
y="0px" viewBox="0 0 892 135" style="enable-background:new 0 0 892 135;" xml:space="preserve">
<style type="text/css">
.sw15{fill:none;stroke:#FF0000;stroke-width:15;stroke-miterlimit:1;}
.sw19{fill:none;stroke:#FF0000;stroke-width:19;stroke-miterlimit:1;}
.sw16{fill:none;stroke:#FF0000;stroke-width:16;stroke-miterlimit:1;}
.sw13{fill:none;stroke:#FF0000;stroke-width:13;stroke-miterlimit:1;}
.aw14{fill:none;stroke:#FF0000;stroke-width:14;stroke-miterlimit:1;}
.sw20{fill:none;stroke:#FF0000;stroke-width:20;stroke-miterlimit:1;}
</style>
<path id="js-no01" class="p-svg__anim sw15" d="M45.9,105.5l3.7-4.7c0,0,3.1-11.4,0.4-13.6c-5.3-4.3-54.2,24.4-39.2,30.9S45.9,105.5,45.9,105.5
l0.4,2.3c0,0-3.5,9.7-0.1,11.7c6.8,3.4,27.7-6.2,27.7-6.2"/>
<path id="js-no02" class="p-svg__anim sw19" d="M72.9,114.4l27.8-15.1c0,0,7.2-3.4,8.9-3.4c1.9,0,6.8,1.8,7.8,2.2c6.1,2.5-9.9,20.9-8.5,22.3
c2.4,2.4,37.7-23.3,51.8-34.5c10,2.8-7.2,19.2-4.7,26.6c5.9,13.8,27.8,7.2,27.8,7.2l22.6-12.3"/>
<path id="js-no03" class="p-svg__anim sw15" d="M204.9,107l30.8-21.2c0,0-22.3,21.1-19.1,28.3s12.4,8.4,12.4,8.4l34.8-11.3"/>
<path id="js-no04" class="p-svg__anim sw16" d="M261.9,109.8l18.8-11.5c0,0,12.4-5.9,15-6.8c2.4-0.8,11-0.5,12.4,2.7c1.1,2.6-5.3,9.2-5.3,9.2
s-11.8,15.9-8.2,18.9s24.7-16.3,24.7-16.3l27.1-11.1c0,0,14.6-5.2,18.9-2.1c2.1,1.5-10.7,11.8-10.7,11.8s-13.5,14.7-10.4,17.3
s27.3-17.9,27.3-17.9l17-4.5l10.5-4.9c0,0,5.9-7.4,8.9-6.1c11.1,4.9-4.6,16.5-4.6,22.3c0,5.1,1.8,11.5,8.5,11.5s30.9-14.5,30.9-14.5
l5.3-0.6l3.8,1.7"/>
<path id="js-no05" class="p-svg__anim sw15" d="M492.8,106.1c0,0,10.7-12.8,5.2-15.8c-15.9-8.8-49.7,19.3-40.6,27.3
C466.1,125.3,492.8,106.1,492.8,106.1l1.4,5.7c0,0-4.5,4.7-1.2,8s40.6-11.1,40.6-11.1l5-4.2"/>
<path id="js-no06" class="p-svg__anim sw13" d="M538.6,105.1l30-26.6l6.9-9.7l8.5-2.3l17.7-15.9L612,38.2l18.2-16c0,0,11.7-6.3,12.3-5.8
c3.3,3.3-29.8,32.6-29.8,32.6l-17.6,20.4l-7.5,7.3l-9.4,10.9c0,0-19,16.8-9.4,29.6c7.2,9.6,34.7-1.7,34.7-1.7"/>
<path id="js-no07" class="p-svg__anim sw13" d="M599.9,115.9l20-11l14.6-10.6c0,0,6.3-6.8,8.4-4.7c1.4,1.4-5.7,12.3-11.8,17.1
c-2.2,1.8-3.3,2.7-3.7,4.2c-0.4,1.6,1.4,3.2,2.2,5c3.6,8.4,22,4.3,22,4.3l13.1-5.5l11.7-8.7l4.7,1.8"/>
<path id="js-no08" class="p-svg__anim sw14" d="M723.4,86.2c-5.6-2.7-39.2,7.5-38,30.2c0.8,16.2,32.8-10.5,32.8-10.5l6.2-8.4
C724.4,97.4,726.5,87.7,723.4,86.2z"/>
<path id="js-no09" class="p-svg__anim sw20" d="M725.1,100.4l9,4l12.8,1.4l15.5-6.7c0,0,12.9-7.5,19.8-4.1s-2,23.1,7.8,26.2s20.4-18.1,25.1-16.4
s8.9,16.5,18.3,18.6s53.8-19.1,53.8-19.1"/>
<path id="js-no10" class="p-svg__anim sw20" d="M293.2,6.8l3.8,32.9"/>
<path id="js-no11" class="p-svg__anim sw20" d="M512.7,48.1L751,47.6"/>
<path id="js-no12" class="p-svg__anim sw20" d="M698.6,4.6l10.5,30.1"/>
</svg>
