<svg version="1.1" xmlns="http://www.w3.org/2000/svg" xmlns:xlink="http://www.w3.org/1999/xlink" x="0px" y="0px" viewBox="0 0 892 135" fill="#ffffff">
<path d="M90.422,109.665c-3.6,2.4-18.3,8.7-22.8,10.2c-3,0.9-5.7,2.7-8.4,4.2c-2.1,0.9-8.7,2.1-11.101,2.1c-6.9,0-6.6-7.2-11.4-7.2
c-4.2,0-7.8,5.7-15.6,5.7c-3.6,0-6.9-0.9-10.2-1.8c-5.7-1.5-8.4-2.7-8.4-9.3c0-8.7,12-17.1,18.9-21c5.7-3,11.7-8.4,19.2-8.4h1.2
c3,0,5.7-1.2,8.4-1.2c4.8,0,6.3,6,6.3,9.9c0,6-5.4,11.7-5.4,15.9c0,2.7,1.8,6.6,4.8,6.6c2.4,0,18.3-4.5,21-6
c2.7-1.5,10.2-5.1,13.2-5.1c1.2,0,3,0.6,3,1.8C93.122,107.565,91.322,109.065,90.422,109.665z M43.021,92.565
c-6.6,0-17.4,11.1-23.4,14.4c-1.8,1.2-3.6,2.7-3.6,5.1c0,2.7,2.7,4.2,5.1,4.2c5.4,0,14.4-7.5,17.1-12c1.8-3.3,7.8-5.1,7.8-8.1
C46.021,94.365,44.821,92.565,43.021,92.565z"/>
<path d="M209.22,111.165c-4.2,1.5-7.8,3.3-12,5.7c-3.6,2.1-4.8,3.9-9.6,4.2c-3.6,0.3-6,3.6-9.6,4.8c-3,0.9-6,1.8-9,1.8
c-6.9,0-12.3-5.4-15.6-10.8c-1.8-2.7-0.6-12-3.3-12c-2.7,0-10.8,6.3-14.4,7.8c-10.2,4.2-11.7,13.2-26.7,13.2
c-3.3,0-7.2-1.8-7.2-5.4c0-3.9,6.3-6.6,6.3-10.2c0-1.2-3.9-5.7-5.4-5.7c-0.6,0-1.5,0.6-2.1,0.9c-6,2.7-12.3,2.7-17.7,6
c-2.1,1.2-4.5,2.4-6.9,2.4c-0.9,0-4.2-0.3-4.2-1.5c0-2.1,6.6-5.4,8.1-6c4.5-2.4,9.3-4.2,14.1-6.6c5.7-3,10.8-6.9,16.5-10.2
c1.5-0.9,3.3-1.5,5.1-1.5c3.6,0,11.1,5.7,11.1,9.3c0,3-4.5,6.3-4.5,10.8c0,1.2,0.3,1.8,1.5,1.8c2.4,0,20.1-12.3,22.5-15
c3.6-4.5,12-13.2,18.3-13.2c3.6,0,7.5,6,7.5,9.3c0,6-9.9,4.2-9.9,12.9c0,1.5,0.3,3,0.6,4.2c2.1,7.8,3.9,10.2,12,10.2
c5.7,0,10.2-3.6,15.3-5.4c5.4-1.8,17.4-8.7,21-8.7c1.2,0,3.301,0.6,3.301,2.4C214.32,108.765,211.02,110.265,209.22,111.165z"/>
<path d="M264.417,113.265c-3.601,1.8-6.9,3-10.2,5.7c-3.601,3.3-9.601,3.9-14.4,5.1c-3.6,0.9-7.8,3.3-11.7,3.3
c-4.5,0-14.101-3.6-15.601-8.1c-0.6-2.7-0.6-6-2.1-8.1c-0.9-1.5-2.7-3-2.7-4.8c0-2.1,6-7.8,7.8-9c3.301-2.1,5.4-5.4,7.801-8.4
c1.8-2.4,5.399-3,8.399-3c2.7,0,5.101,0.3,5.101,3.9c0,1.2-0.3,2.1-1.2,2.7c-2.7,1.8-3.3,6.9-6.6,8.4c-3,1.2-6.301,5.7-6.301,9.3
c0,3.6,3.301,6.9,6.9,6.9c2.1,0,3.9-0.9,6-0.9c0.9,0,2.101,0.3,3.3,0.3c1.801,0,2.7-0.3,3.9-1.5c3.3-2.7,10.8-1.5,15.601-5.1
c3.6-2.7,5.699-2.1,7.8-3.6c1.5-0.9,3.3-1.8,5.1-1.8c1.2,0,3,0.3,3,1.8C274.316,109.965,267.116,112.065,264.417,113.265z
 M296.817,32.564c-7.501,0-12.001-6.6-12.001-13.8c0-3.3,6-12,8.4-12c1.5,0,3.3,2.1,4.5,3.3c2.7,3,2.101,7.8,2.7,11.4
c0.3,2.4,2.4,4.2,2.4,6.3C302.817,30.164,299.217,32.564,296.817,32.564z"/>
<path d="M448.914,113.565c-9.601,3.9-20.101,12-30.9,12c-1.2,0-2.4-0.3-3.601-0.3c-1.8,0-3.3,0.6-5.1,0.6
c-7.2,0-12.3-6.3-12.3-13.5c0-4.2,2.399-7.2,2.399-8.7s-2.1-1.8-3.3-1.8c-3.9,0-4.8,3.3-11.1,3.3c-3.601,0-7.2,3.3-10.501,4.8
c-4.5,2.1-8.699,4.2-12.899,6.9c-3.9,2.4-4.801,9.3-9,9.9c-0.601,0.3-1.5,0.3-2.4,0.3c0,0-8.101-3.6-8.101-6.9
c0-5.4,7.801-6.9,7.801-13.2c0-3.3-2.4-4.8-5.7-4.8c-2.7,0-5.101,1.2-7.5,2.7c-4.2,3.3-6.9,3.9-12,4.8
c-4.801,1.2-10.801,4.5-15,7.5c-2.7,2.1-6.9,8.4-10.501,8.4c-2.1,0-8.399-3.6-8.399-5.7c0-1.8,1.2-3.3,2.7-4.2c3-1.8,6-11.7,6-14.7
c0-2.4-1.5-3-3.601-3c-9,0-9.9,6.6-15.9,7.8c-5.399,1.2-10.5,6.9-15.3,6.9c-1.5,0-3-0.6-3-2.1c0-1.8,1.2-3,2.7-3.9
c3.3-1.5,6.3-3.9,9.3-6c6.9-4.8,18.601-15.6,27.301-15.6c3,0,1.5,1.5,4.5,2.1c3,0.9,9,1.8,9,6c0,2.7-1.8,5.4-1.8,8.4
c0,1.5,0.899,2.4,2.699,2.4c1.801,0,3.601-0.9,5.7-0.9c1.5-1.2,3.601-1.8,5.4-2.7c5.7-3,10.5-9.3,17.4-9.6
c6.6,0,9.899-4.5,14.399-4.5c3.601,0,12.601,3.9,12.601,8.1c0,2.1-2.7,5.1-2.7,7.8c0,0.9,0.3,1.2,1.2,1.2c5.4,0,18-9.9,25.5-11.1
c4.8-0.6,7.5-6.9,13.5-6.9c4.801,0,10.2,4.2,10.2,9.3c0,4.8-9.3,9-9.3,20.4c0,3,3.9,3.3,7.8,3.3c3.9,0,8.4-0.6,11.7-3
c4.2-2.4,9-2.7,12.9-5.1c2.7-1.5,5.1-2.4,7.8-3.6c1.8-0.9,4.5-2.7,6.601-2.7c1.199,0,2.699,0.9,2.699,2.1
C458.813,109.365,451.014,112.665,448.914,113.565z"/>
<path d="M537.711,109.665c-3.6,2.4-18.3,8.7-22.8,10.2c-3,0.9-5.7,2.7-8.4,4.2c-2.1,0.9-8.7,2.1-11.1,2.1
c-6.9,0-6.601-7.2-11.4-7.2c-4.2,0-7.8,5.7-15.601,5.7c-3.6,0-6.899-0.9-10.199-1.8c-5.7-1.5-8.4-2.7-8.4-9.3
c0-8.7,12-17.1,18.9-21c5.7-3,11.7-8.4,19.2-8.4h1.199c3.001,0,5.7-1.2,8.4-1.2c4.8,0,6.3,6,6.3,9.9c0,6-5.399,11.7-5.399,15.9
c0,2.7,1.8,6.6,4.8,6.6c2.4,0,18.3-4.5,21-6s10.2-5.1,13.2-5.1c1.2,0,3,0.6,3,1.8C540.411,107.565,538.611,109.065,537.711,109.665
z M490.311,92.565c-6.6,0-17.4,11.1-23.4,14.4c-1.8,1.2-3.6,2.7-3.6,5.1c0,2.7,2.7,4.2,5.1,4.2c5.4,0,14.4-7.5,17.101-12
c1.8-3.3,7.8-5.1,7.8-8.1C493.311,94.365,492.111,92.565,490.311,92.565z"/>
<path d="M748.01,52.665c-3,0-6.3-1.5-9.6-1.5c-3,0-5.7,0.6-9.301,0.6h-2.399c-3.9,0-7.801,0.3-11.7,0.3c-3.3,0-6.601-0.6-9.9-0.6
c-5.4,0-10.8,0.9-16.2,0.9c-3.3,0-6.3-1.2-9.3-1.2c-2.7,0-4.8,0.9-7.5,0.9c-4.2,0-8.4-0.9-12.601-0.9c-8.7,0-17.4,1.2-26.1,1.2
h-8.4c-3.601,0-9.601,2.1-11.7,5.4c-2.4,3.6-7.5,4.8-9.3,9.3c-1.801,4.8-9.601,6.9-12.301,12.9c-2.7,6.3-9.3,7.8-11.1,12.3
c-1.5,4.2-5.4,5.7-6.3,8.4c-1.2,3.3-1.5,6.3-1.5,9.6c0,6,4.8,7.5,9.899,7.5c1.5,0,3.3-0.3,4.8-0.9c4.501-1.5,9.301-1.5,13.501-3.6
c3.3-1.8,6.899-2.4,10.2-4.2c3.3-1.8,8.1-4.8,11.699-4.8c1.2,0,3.301,0.9,3.301,2.4c0,1.8-8.7,6-10.801,6.6
c-3.899,0.9-5.699,4.5-9.899,5.1c-4.2,0.6-8.101,3.6-12.601,4.2c-5.1,0.9-9.9,2.7-15,2.7c-6,0-17.101-3.3-17.101-10.8v-9
c0-1.5,0-3,0.9-4.2c3.3-5.1,4.5-11.4,9.601-14.7c4.8-3,4.5-3.9,7.199-7.8c1.801-2.4,7.5-5.7,9.601-8.7c0.3-0.3,0.6-1.2,0.6-2.1
c0-0.3-0.3-0.6-0.899-0.6l-0.9,0.9c-1.5,1.8-2.4,3-5.1,4.2c-8.101,4.5-6.301,8.1-9.9,10.2c-4.2,2.4-6.601,5.7-9.9,9
c-3.3,3.3-6.899,5.7-10.8,7.8c-3,1.8-4.5,5.1-7.8,6.3c-3.601,1.5-7.2,3.3-10.5,5.4c-1.801,1.2-3.9,2.4-6.001,2.4
c-1.199,0-3-0.9-3-2.4c0-2.4,12.001-8.4,14.4-10.2c4.2-2.7,7.8-6.3,12-9c4.2-2.7,7.801-6.9,12.301-9.6c6.3-3.9,9.3-10.2,14.399-15
c1.5-1.5,12.601-13.2,12.601-13.8c0-0.3-0.3-0.6-0.601-0.9c-3.6-0.9-8.399-0.6-12.3-0.9c-2.399-0.6-4.5-0.6-7.8-0.6h-6.601
c-2.399,0-4.8,0.9-7.199,0.9c-1.2,0-2.101-0.3-3.301-0.3c-0.899,0-2.7,0.9-3.899,0.9c-2.4,0-2.101-0.6-4.5-0.6
c-4.2,0-8.101,0.3-12.001,0.3c-1.8,0-4.5-0.3-4.5-2.7c0-2.7,0.601-4.8,3.9-4.8c1.8,0,3.601,0.6,5.4,0.6c5.1,0,9.899-0.3,15-0.3
c6.3,0,12.9,0.3,19.5,0.3c3.601,0,7.2-1.5,11.101-1.5c3.3,0,6.899,0.6,10.2,0.6c13.199,0,9-6,16.8-9c6.3-2.1,6.3-5.7,10.5-7.2
s5.7-6.6,10.2-8.7c3.6-1.5,9-6,12.6-6c2.101,0,4.2,2.1,4.2,4.2c0,2.4-6.3,12.3-8.399,13.5c-3.601,2.4-7.2,10.5-9.9,11.1
c-0.3,0.3-1.2,0.3-1.2,0.9c0,1.8,3.9,2.4,7.5,2.4c2.7,0,5.4-0.3,6.3-0.3c4.5,0,9.301,0.6,13.801,0.6c3.6,0,6.899-1.2,10.5-1.2
c4.2,0,8.7,0.9,12.9,0.9c3,0,5.699-0.6,8.399-0.6c3.9,0,7.5,1.2,11.4,1.2c3.6,0,6.9-0.9,10.2-0.9c2.1,0,3.9,0.3,5.7,0.3
c3,0,5.399-1.2,8.1-1.2c4.801,0,9.601,0.9,14.4,0.9c3.6,0,6.9-1.8,10.8-1.8c2.101,0,4.2,0.6,4.2,3.9
C751.01,49.964,751.01,52.665,748.01,52.665z"/>
<path d="M676.005,113.265c-3.6,1.8-6.9,3-10.2,5.7c-3.6,3.3-9.6,3.9-14.4,5.1c-3.6,0.9-7.8,3.3-11.699,3.3
c-4.501,0-14.101-3.6-15.601-8.1c-0.6-2.7-0.6-6-2.1-8.1c-0.9-1.5-2.7-3-2.7-4.8c0-2.1,6-7.8,7.8-9c3.3-2.1,5.4-5.4,7.8-8.4
c1.8-2.4,5.4-3,8.4-3c2.7,0,5.1,0.3,5.1,3.9c0,1.2-0.3,2.1-1.199,2.7c-2.7,1.8-3.301,6.9-6.601,8.4c-3,1.2-6.3,5.7-6.3,9.3
c0,3.6,3.3,6.9,6.9,6.9c2.1,0,3.899-0.9,6-0.9c0.899,0,2.1,0.3,3.3,0.3c1.8,0,2.7-0.3,3.899-1.5c3.301-2.7,10.801-1.5,15.601-5.1
c3.6-2.7,5.7-2.1,7.8-3.6c1.5-0.9,3.301-1.8,5.101-1.8c1.2,0,3,0.3,3,1.8C685.905,109.965,678.705,112.065,676.005,113.265z
 M708.405,32.564c-7.5,0-12-6.6-12-13.8c0-3.3,6-12,8.4-12c1.5,0,3.3,2.1,4.5,3.3c2.699,3,2.1,7.8,2.699,11.4
c0.301,2.4,2.4,4.2,2.4,6.3C714.405,30.164,710.806,32.564,708.405,32.564z"/>
<path d="M871.602,116.865c-4.2,0.9-7.8,3.9-12,4.5c-4.8,0.6-9.3,3.9-14.4,4.8c-3.3,0.6-8.1,0.9-11.399,0.9
c-0.9,0-2.7-0.6-3.601-0.6c-12-1.2-12.6-10.5-20.4-10.5c-4.199,0-9.6,11.4-17.7,11.4c-5.699,0-15-2.1-15-9.6
c0-4.2,3.301-8.1,3.301-12.3c0-3.3-2.4-3.9-5.101-3.9c-1.8,0-3.9,0.3-5.1,1.2c-3.301,2.1-5.101,3-9.301,3.9
c-8.1,1.8-17.399,3.3-25.8,3.3c-1.8,0-3.601-0.6-5.4-0.6c-3.6,0-6,1.2-9.3,1.5c-3,0.6-5.4,3-7.5,4.8c-2.101,1.2-3.9,3.3-6,4.5
c-4.2,2.1-10.5,5.7-15.301,5.7c-6.6,0-12.899-6.6-12.899-13.2c0-11.1,25.2-27.9,34.8-30c2.4-0.6,4.5-1.2,6.9-1.2
c2.1,0,3.3,0.3,4.8,1.8c2.101,1.8,6,3.9,6.601,6.9c0.6,3-0.301,3.3,1.5,5.7c1.8,2.4,5.1,4.2,8.7,4.2c4.8,0,18.899-2.1,22.8-4.2
c4.5-2.7,14.101-6.3,19.2-6.3c3.9,0,6.9,4.5,7.5,8.7c0.3,1.8,2.1,5.1,2.1,7.2c0,1.5-1.199,2.7-1.199,3.9c0,1.2,1.5,2.4,2.399,2.4
c12,0,12-13.5,21.9-13.5c3.3,0,7.5,2.4,7.5,6v3c0,8.4,9,9.9,15.9,9.9c8.1,0,15.9-2.1,23.7-4.5c4.8-1.5,16.2-8.1,20.101-8.1
c1.199,0,2.699,0.6,2.699,1.8C886.602,108.465,874.003,116.565,871.602,116.865z M715.301,89.865c-0.6,0-0.6,0.3-1.8,1.5
c-0.6,3.3-9.6,5.4-12,7.8c-3.9,2.4-9.3,10.5-9.3,14.1c0,1.8,0.6,1.8,2.399,1.8c7.2,0,24.9-12.9,24.9-20.4
C719.501,92.565,717.401,89.865,715.301,89.865z"/>
</svg>
